HIERARCHY
ROOT joint_Root
{
	OFFSET 0.0 0.0 0.0
	CHANNELS 6 Xposition Yposition Zposition Zrotation Xrotation Yrotation 
	JOINT Hips
	{
		OFFSET 4.5925 91.4895 -427.239
		CHANNELS 6 Xposition Yposition Zposition Zrotation Xrotation Yrotation 
		JOINT Spine
		{
			OFFSET 15.7357 0.0 0.0
			CHANNELS 6 Xposition Yposition Zposition Zrotation Xrotation Yrotation 
			JOINT Chest
			{
				OFFSET 8.98455 -0.406207 0.0
				CHANNELS 6 Xposition Yposition Zposition Zrotation Xrotation Yrotation 
				JOINT Neck
				{
					OFFSET 16.3773 0.0 0.0
					CHANNELS 6 Xposition Yposition Zposition Zrotation Xrotation Yrotation 
					JOINT Head
					{
						OFFSET 6.45672 0.0 0.0
						CHANNELS 6 Xposition Yposition Zposition Zrotation Xrotation Yrotation 
						End Site
						{
							OFFSET 0.0 0.0 0.0
						}
					}
				}
				JOINT Shoulder_L
				{
					OFFSET 12.9942 -0.242716 4.98039
					CHANNELS 6 Xposition Yposition Zposition Zrotation Xrotation Yrotation 
					JOINT UpperArm_L
					{
						OFFSET 5.34809 0.0 0.0
						CHANNELS 6 Xposition Yposition Zposition Zrotation Xrotation Yrotation 
						JOINT LowerArm_L
						{
							OFFSET 24.3286 1.87007e-05 0.0
							CHANNELS 6 Xposition Yposition Zposition Zrotation Xrotation Yrotation 
							JOINT Hand_L
							{
								OFFSET 22.2916 0.0 0.0
								CHANNELS 6 Xposition Yposition Zposition Zrotation Xrotation Yrotation 
								End Site
								{
									OFFSET 0.0 0.0 0.0
								}
							}
						}
					}
				}
				JOINT Shoulder_R
				{
					OFFSET 12.9945 -0.242716 -4.98039
					CHANNELS 6 Xposition Yposition Zposition Zrotation Xrotation Yrotation 
					JOINT UpperArm_R
					{
						OFFSET -5.34813 0.0 0.0
						CHANNELS 6 Xposition Yposition Zposition Zrotation Xrotation Yrotation 
						JOINT LowerArm_R
						{
							OFFSET -24.3289 0.000322201 0.0
							CHANNELS 6 Xposition Yposition Zposition Zrotation Xrotation Yrotation 
							JOINT Hand_R
							{
								OFFSET -22.2915 -0.000108084 0.0
								CHANNELS 6 Xposition Yposition Zposition Zrotation Xrotation Yrotation 
								End Site
								{
									OFFSET 0.0 0.0 0.0
								}
							}
						}
					}
				}
			}
		}
		JOINT UpperLeg_L
		{
			OFFSET -2.19248 -6.46944 0.0
			CHANNELS 6 Xposition Yposition Zposition Zrotation Xrotation Yrotation 
			JOINT LowerLeg_L
			{
				OFFSET 39.0811 0.0 -1.23785e-05
				CHANNELS 6 Xposition Yposition Zposition Zrotation Xrotation Yrotation 
				JOINT Foot_L
				{
					OFFSET 40.9854 0.0 -1.26872e-05
					CHANNELS 6 Xposition Yposition Zposition Zrotation Xrotation Yrotation 
					JOINT Toes_L
					{
						OFFSET 11.7543 0.0 0.0
						CHANNELS 6 Xposition Yposition Zposition Zrotation Xrotation Yrotation 
						End Site
						{
							OFFSET 0.0 0.0 0.0
						}
					}
				}
			}
		}
		JOINT UpperLeg_R
		{
			OFFSET -2.19251 6.46944 0.0
			CHANNELS 6 Xposition Yposition Zposition Zrotation Xrotation Yrotation 
			JOINT LowerLeg_R
			{
				OFFSET -39.0811 -0.00228153 -0.0401928
				CHANNELS 6 Xposition Yposition Zposition Zrotation Xrotation Yrotation 
				JOINT Foot_R
				{
					OFFSET -40.9854 0.0 0.0
					CHANNELS 6 Xposition Yposition Zposition Zrotation Xrotation Yrotation 
					JOINT Toes_R
					{
						OFFSET -11.7543 0.0 0.0
						CHANNELS 6 Xposition Yposition Zposition Zrotation Xrotation Yrotation 
						End Site
						{
							OFFSET 0.0 0.0 0.0
						}
					}
				}
			}
		}
	}
}
MOTION
Frames:	6
Frame Time:	0.0333333
0.000000 0.000000 0.000000 0.000000 0.000000 -0.000000 125.383000 89.539600 159.111000 89.147000 -66.799500 0.723900 15.735700 0.000005 -0.000001 82.867100 80.685900 -84.523400 8.984550 -0.406207 -0.000000 10.692500 -2.338880 -3.092200 16.377300 -0.000001 -0.000001 2.618550 -10.748900 2.359730 6.456720 -0.000001 -0.000000 1.652670 -13.263600 9.760440 12.994200 -0.242716 4.980390 -90.333800 1.102520 -73.157000 5.348090 -0.000007 -0.000001 -62.598000 24.682400 -15.211200 24.328600 0.000019 0.000005 9.020590 17.174000 -28.264900 22.291600 -0.000001 0.000005 11.934200 5.229260 1.975520 12.994500 -0.242716 -4.980390 88.417000 8.219940 -79.059800 -5.348130 -0.000001 -0.000004 -64.433300 33.446000 -12.585800 -24.328900 0.000322 -0.000009 -0.742587 -1.306380 -29.577100 -22.291500 -0.000108 -0.000004 16.936400 5.436050 -4.146490 -2.192480 -6.469440 -0.000000 -174.359000 -9.993200 -16.950300 39.081100 -0.000007 -0.000012 -0.210010 0.275259 37.342300 40.985400 -0.000006 -0.000013 -3.099180 3.463110 -68.433800 11.754300 -0.000000 0.000003 -0.000283 -0.002477 -16.670000 -2.192510 6.469440 -0.000001 175.186000 -2.378090 162.972000 -39.081100 -0.002282 -0.040193 0.084404 -0.060623 53.245000 -40.985400 0.000008 0.000006 3.290210 12.402800 -64.392000 -11.754300 -0.000006 -0.000006 -0.024273 -0.189902 -24.340800
0.000000 0.000000 0.000000 0.000000 0.000000 -0.000000 124.779000 89.709700 160.472000 87.676300 -68.813000 -0.819181 15.735700 0.000005 -0.000001 82.218400 80.656100 -83.843800 8.984550 -0.406207 -0.000000 10.723000 -2.554070 -3.009640 16.377300 -0.000001 -0.000001 2.133970 -10.096800 2.079150 6.456720 -0.000001 -0.000000 1.076360 -12.295700 9.475490 12.994200 -0.242716 4.980390 -90.342100 1.143480 -73.343800 5.348090 -0.000007 -0.000001 -60.692600 23.335600 -16.741300 24.328600 0.000019 0.000005 9.490710 15.614500 -31.845100 22.291600 -0.000001 0.000005 13.149600 5.244950 1.566930 12.994500 -0.242716 -4.980390 88.386800 8.403070 -79.091900 -5.348130 -0.000001 -0.000004 -65.149700 33.905800 -11.761100 -24.328900 0.000322 -0.000009 -0.036163 -0.065100 -28.253800 -22.291500 -0.000108 -0.000004 16.188600 5.418650 -3.553360 -2.192480 -6.469440 -0.000000 -174.385000 -11.686200 -15.788200 39.081100 -0.000007 -0.000012 -0.215019 0.284679 37.064300 40.985400 -0.000006 -0.000013 -2.608870 3.018730 -69.434700 11.754300 -0.000000 0.000003 -0.000304 -0.002631 -16.675500 -2.192510 6.469440 -0.000001 175.838000 0.529622 159.703000 -39.081100 -0.002282 -0.040193 0.124303 -0.078845 56.929700 -40.985400 0.000008 0.000006 -0.764448 8.708590 -60.470100 -11.754300 -0.000006 -0.000006 -0.012372 -0.120583 -21.489300
0.000000 0.000000 0.000000 0.000000 0.000000 -0.000000 124.167000 89.901000 161.608000 86.311700 -70.517900 -2.439300 15.735700 0.000005 -0.000001 81.298300 80.663400 -82.907100 8.984550 -0.406207 -0.000000 10.663600 -2.845690 -2.950530 16.377300 -0.000001 -0.000001 1.735510 -9.530790 1.745660 6.456720 -0.000001 -0.000000 0.574741 -11.437700 9.342150 12.994200 -0.242716 4.980390 -90.343000 1.160090 -73.529400 5.348090 -0.000007 -0.000001 -58.696400 22.152400 -18.617300 24.328600 0.000019 0.000005 9.832660 14.543300 -34.613100 22.291600 -0.000001 0.000005 14.395200 5.253470 1.340760 12.994500 -0.242716 -4.980390 88.335300 8.638860 -79.049300 -5.348130 -0.000001 -0.000004 -65.836100 34.268200 -10.668500 -24.328900 0.000322 -0.000009 0.189103 0.366026 -27.453600 -22.291500 -0.000108 -0.000004 15.852100 5.415240 -3.439700 -2.192480 -6.469440 -0.000000 -174.497000 -12.779600 -14.768000 39.081100 -0.000007 -0.000012 -0.213022 0.288496 36.442100 40.985400 -0.000006 -0.000013 -2.360030 2.250220 -70.147200 11.754300 -0.000000 0.000003 -0.000339 -0.002884 -16.684500 -2.192510 6.469440 -0.000001 177.518000 4.777150 157.628000 -39.081100 -0.002282 -0.040193 0.126589 -0.078260 57.612000 -40.985400 0.000008 0.000006 1.523000 3.518630 -61.665600 -11.754300 -0.000006 -0.000006 -0.011847 -0.116960 -21.340900
0.000000 0.000000 0.000000 0.000000 0.000000 -0.000000 123.586000 90.114700 162.594000 84.666200 -72.259500 -4.383070 15.735700 0.000005 -0.000001 80.722300 80.695900 -82.284400 8.984550 -0.406207 -0.000000 10.569900 -3.017240 -2.843690 16.377300 -0.000001 -0.000001 1.340640 -9.040300 1.467890 6.456720 -0.000001 -0.000000 0.223296 -10.649000 9.137940 12.994200 -0.242716 4.980390 -90.333200 1.139610 -73.699200 5.348090 -0.000007 -0.000001 -57.202200 20.688900 -20.392100 24.328600 0.000019 0.000005 10.601600 14.485500 -36.806900 22.291600 -0.000001 0.000005 15.124100 5.253040 1.352230 12.994500 -0.242716 -4.980390 88.331200 8.675150 -79.067600 -5.348130 -0.000001 -0.000004 -66.759500 34.271200 -9.379410 -24.328900 0.000322 -0.000009 0.078673 0.156430 -27.011100 -22.291500 -0.000108 -0.000004 15.333900 5.414260 -3.406390 -2.192480 -6.469440 -0.000000 -174.540000 -14.155300 -13.750600 39.081100 -0.000007 -0.000012 -0.210218 0.293910 35.574500 40.985400 -0.000006 -0.000013 -2.148780 1.658670 -70.630400 11.754300 -0.000000 0.000003 -0.000370 -0.003103 -16.692300 -2.192510 6.469440 -0.000001 179.686000 8.823050 156.338000 -39.081100 -0.002282 -0.040193 0.106740 -0.072598 54.956400 -40.985400 0.000008 0.000006 2.501860 0.153767 -62.877400 -11.754300 -0.000006 -0.000006 -0.011763 -0.116370 -21.316700
0.000000 0.000000 0.000000 0.000000 0.000000 -0.000000 123.038000 90.295700 163.503000 83.296700 -74.131600 -6.227730 15.735700 0.000005 -0.000001 80.340100 80.751800 -81.930300 8.984550 -0.406207 -0.000000 10.437800 -3.119550 -2.893930 16.377300 -0.000001 -0.000001 0.873598 -8.479300 1.241630 6.456720 -0.000001 -0.000000 -0.032849 -9.931230 9.084530 12.994200 -0.242716 4.980390 -90.273600 0.938496 -73.744000 5.348090 -0.000007 -0.000001 -56.317900 18.998200 -21.978300 24.328600 0.000019 0.000005 11.148100 14.331400 -38.524100 22.291600 -0.000001 0.000005 15.553500 5.252710 1.360870 12.994500 -0.242716 -4.980390 88.357600 8.680470 -79.243200 -5.348130 -0.000001 -0.000004 -67.496300 34.408300 -8.287340 -24.328900 0.000322 -0.000009 0.042141 0.085588 -26.789900 -22.291500 -0.000108 -0.000004 14.995100 5.415920 -3.461910 -2.192480 -6.469440 -0.000000 -174.805000 -15.547800 -12.892800 39.081100 -0.000007 -0.000012 -0.209137 0.302725 34.639000 40.985400 -0.000006 -0.000013 -1.990510 1.008960 -71.042800 11.754300 -0.000000 0.000003 -0.000410 -0.003375 -16.701900 -2.192510 6.469440 -0.000001 -177.881000 12.611900 155.561000 -39.081100 -0.002282 -0.040193 0.077665 -0.062985 49.756000 -40.985400 0.000008 0.000006 2.718000 -0.130450 -63.582700 -11.754300 -0.000006 -0.000006 -0.012274 -0.119907 -21.461600
0.000000 0.000000 0.000000 0.000000 0.000000 -0.000000 122.460000 90.402500 164.343000 82.262000 -75.934600 -7.782090 15.735700 0.000005 -0.000001 79.849700 80.817600 -81.485500 8.984550 -0.406207 -0.000000 10.278800 -3.250770 -2.977500 16.377300 -0.000001 -0.000001 0.399645 -7.866440 0.971710 6.456720 -0.000001 -0.000000 -0.232176 -9.193160 9.059200 12.994200 -0.242716 4.980390 -90.205400 0.706578 -73.790300 5.348090 -0.000007 -0.000001 -55.929300 17.376700 -23.101200 24.328600 0.000019 0.000005 11.293500 13.826600 -39.883100 22.291600 -0.000001 0.000005 15.985300 5.252480 1.367360 12.994500 -0.242716 -4.980390 88.385800 8.664410 -79.404400 -5.348130 -0.000001 -0.000004 -67.916100 34.739800 -7.580950 -24.328900 0.000322 -0.000009 0.255010 0.509331 -26.693200 -22.291500 -0.000108 -0.000004 14.702100 5.411110 -3.301790 -2.192480 -6.469440 -0.000000 -175.240000 -16.642000 -12.181800 39.081100 -0.000007 -0.000012 -0.210104 0.313237 33.852100 40.985400 -0.000006 -0.000013 -1.950480 0.144329 -71.507200 11.754300 -0.000000 0.000003 -0.000396 -0.003278 -16.698500 -2.192510 6.469440 -0.000001 -175.110000 16.611900 155.201000 -39.081100 -0.002282 -0.040193 0.050378 -0.050266 43.142500 -40.985400 0.000008 0.000006 1.985520 1.640290 -63.682400 -11.754300 -0.000006 -0.000006 -0.012353 -0.120451 -21.483900
